HIERARCHY
ROOT Hips
{
	OFFSET 0.000000 0.000000 0.000000
	CHANNELS 6 Xposition Yposition Zposition Zrotation Yrotation Xrotation 
	JOINT LowerBack
	{
		OFFSET 0.000000 0.000000 0.000000
		CHANNELS 3 Zrotation Yrotation Xrotation
		JOINT Spine
		{
			OFFSET 0.028270 2.035590 -0.193380
			CHANNELS 3 Zrotation Yrotation Xrotation
			JOINT Spine1
			{
				OFFSET 0.056720 2.048850 -0.042750
				CHANNELS 3 Zrotation Yrotation Xrotation
				JOINT Neck
				{
					OFFSET 0.000000 0.000000 0.000000
					CHANNELS 3 Zrotation Yrotation Xrotation
					JOINT Neck1
					{
						OFFSET -0.054170 1.746240 0.172020
						CHANNELS 3 Zrotation Yrotation Xrotation
						JOINT Head
						{
							OFFSET 0.104070 1.761360 -0.123970
							CHANNELS 3 Zrotation Yrotation Xrotation
							End Site
							{
								OFFSET 0.000000 0.000000 0.000000
							}
						}
					}
				}
				JOINT LeftShoulder
				{
					OFFSET 0.000000 0.000000 0.000000
					CHANNELS 3 Zrotation Yrotation Xrotation
					JOINT LeftArm
					{
						OFFSET 3.362410 1.200890 -0.311210
						CHANNELS 3 Zrotation Yrotation Xrotation
						JOINT LeftForeArm
						{
							OFFSET 4.983000 -0.000000 -0.000000
							CHANNELS 3 Zrotation Yrotation Xrotation
							JOINT LeftHand
							{
								OFFSET 3.483560 -0.000000 -0.000000
								CHANNELS 3 Zrotation Yrotation Xrotation
								JOINT LeftFingerBase
								{
									OFFSET 0.000000 0.000000 0.000000
									CHANNELS 3 Zrotation Yrotation Xrotation
									JOINT LeftHandIndex1
									{
										OFFSET 0.715260 -0.000000 -0.000000
										CHANNELS 3 Zrotation Yrotation Xrotation
										End Site
										{
											OFFSET 0.000000 0.000000 0.000000
										}
									}
								}
								JOINT LThumb
								{
									OFFSET 0.000000 0.000000 0.000000
									CHANNELS 3 Zrotation Yrotation Xrotation
									End Site
									{
										OFFSET 0.000000 0.000000 0.000000
									}
								}
							}
						}
					}
				}
				JOINT RightShoulder
				{
					OFFSET 0.000000 0.000000 0.000000
					CHANNELS 3 Zrotation Yrotation Xrotation
					JOINT RightArm
					{
						OFFSET -3.136600 1.374050 -0.404650
						CHANNELS 3 Zrotation Yrotation Xrotation
						JOINT RightForeArm
						{
							OFFSET -5.241900 -0.000000 -0.000000
							CHANNELS 3 Zrotation Yrotation Xrotation
							JOINT RightHand
							{
								OFFSET -3.444170 -0.000000 -0.000000
								CHANNELS 3 Zrotation Yrotation Xrotation
								JOINT RightFingerBase
								{
									OFFSET 0.000000 0.000000 0.000000
									CHANNELS 3 Zrotation Yrotation Xrotation
									JOINT RightHandIndex1
									{
										OFFSET -0.622530 -0.000000 -0.000000
										CHANNELS 3 Zrotation Yrotation Xrotation
										End Site
										{
											OFFSET 0.000000 0.000000 0.000000
										}
									}
								}
								JOINT RThumb
								{
									OFFSET 0.000000 0.000000 0.000000
									CHANNELS 3 Zrotation Yrotation Xrotation
									End Site
									{
										OFFSET 0.000000 0.000000 0.000000
									}
								}
							}
						}
					}
				}
			}
		}
	}
}
}
MOTION
Frames: 18
Frame Time: 0.008333
2.923937 15.931146 1.196501 179.090033 -77.779866 -133.090188 3.300540 -3.313564 4.557329 0.399691 -3.405161 -2.394047 -4.761288 -3.333863 -1.755101 10.595146 -16.033229 -9.236996 -1.951865 -0.088614 -0.994344 0.000000 0.000000 0.000000 16.897617 1.432436 0.168165 -75.983542 4.041619 7.304187 179.520998 -51.387992 179.867053 12.032143 -3.745361 -0.482837 -0.281363 0.764464 -0.000000 0.000000 0.000000 0.000000 0.000000 0.000000 0.000000 1.458389 -11.076404 1.150523 73.764420 -0.266772 21.957003 179.894038 64.781064 179.846324 -18.328999 5.561049 -1.025935 0.467265 -0.657853 -0.000000 0.000000 0.000000 0.000000 0.000000 0.000000 0.000000 
2.928940 15.919819 1.198006 178.882410 -77.931088 -132.939841 3.240452 -3.270873 4.612547 0.387280 -3.357766 -2.385667 -4.726719 -3.287010 -1.775545 10.596141 -15.943002 -9.215951 -1.975332 -0.090584 -0.991168 0.000000 0.000000 0.000000 16.856790 1.489354 0.154585 -76.083863 3.879494 7.453618 179.509989 -51.463198 179.866507 12.055506 -3.757376 -0.485178 -0.281162 0.765458 -0.000000 0.000000 0.000000 0.000000 0.000000 0.000000 0.000000 1.661214 -10.998357 1.164662 73.734227 -0.327345 21.826948 179.890072 65.365010 179.846950 -18.394016 5.578957 -1.031563 0.463766 -0.652827 -0.000000 0.000000 0.000000 0.000000 0.000000 0.000000 0.000000 
2.934188 15.908411 1.199209 178.669812 -78.099319 -132.795127 3.178593 -3.223368 4.674636 0.374853 -3.305184 -2.376754 -4.687538 -3.235113 -1.799560 10.588982 -15.833342 -9.188866 -2.001818 -0.092878 -0.986370 0.000000 0.000000 0.000000 16.805619 1.550452 0.141984 -76.200380 3.719345 7.612238 179.497374 -51.541476 179.865929 12.080184 -3.772212 -0.487922 -0.280840 0.766533 -0.000000 0.000000 0.000000 0.000000 0.000000 0.000000 0.000000 1.874868 -10.900358 1.179223 73.695857 -0.386777 21.678416 179.887269 66.006021 179.847570 -18.474061 5.586750 -1.036196 0.460152 -0.647006 0.000000 0.000000 0.000000 0.000000 0.000000 0.000000 0.000000 
2.939597 15.896966 1.200199 178.452682 -78.287056 -132.656335 3.117224 -3.170923 4.743601 0.362845 -3.247395 -2.367417 -4.644113 -3.178146 -1.827360 10.572807 -15.702663 -9.155541 -2.031530 -0.095518 -0.979879 0.000000 0.000000 0.000000 16.742998 1.615478 0.130861 -76.334614 3.562203 7.779294 179.483504 -51.622738 179.865337 12.104619 -3.789573 -0.490969 -0.280357 0.767683 -0.000000 0.000000 0.000000 0.000000 0.000000 0.000000 0.000000 2.097650 -10.780341 1.194326 73.650056 -0.445774 21.507517 179.885663 66.698954 179.848220 -18.562982 5.583964 -1.039334 0.456282 -0.640448 -0.000000 0.000000 0.000000 0.000000 0.000000 0.000000 0.000000 
2.945252 15.885662 1.201085 178.229460 -78.496180 -132.524992 3.059211 -3.113273 4.820571 0.351762 -3.184245 -2.357382 -4.597074 -3.115902 -1.858660 10.546819 -15.549748 -9.115943 -2.064485 -0.098503 -0.971670 0.000000 0.000000 0.000000 16.666520 1.686958 0.121636 -76.485530 3.405601 7.956471 179.469068 -51.709153 179.864718 12.130113 -3.807518 -0.494118 -0.279814 0.768849 -0.000000 0.000000 0.000000 0.000000 0.000000 0.000000 0.000000 2.326588 -10.636841 1.209702 73.599426 -0.503534 21.309334 179.885414 67.435917 179.848931 -18.654122 5.570199 -1.040778 0.452010 -0.633244 0.000000 0.000000 0.000000 0.000000 0.000000 0.000000 0.000000 
2.951032 15.874598 1.201888 177.998780 -78.728741 -132.399702 3.006370 -3.050252 4.905947 0.341933 -3.115651 -2.346539 -4.546829 -3.048269 -1.893360 10.510774 -15.373169 -9.070052 -2.100620 -0.101826 -0.961759 0.000000 0.000000 0.000000 16.575292 1.766508 0.114665 -76.653550 3.247785 8.144861 179.454500 -51.802040 179.864084 12.156448 -3.824971 -0.497169 -0.279230 0.770005 -0.000000 0.000000 0.000000 0.000000 0.000000 0.000000 0.000000 2.559485 -10.468128 1.225238 73.546054 -0.560062 21.079285 179.886697 68.210892 179.849717 -18.743171 5.545466 -1.040030 0.447250 -0.625483 -0.000000 0.000000 0.000000 0.000000 0.000000 0.000000 0.000000 
2.956892 15.863855 1.202659 177.752440 -78.987650 -132.271860 2.958905 -2.981843 4.998864 0.333409 -3.041638 -2.335199 -4.493549 -2.975264 -1.931841 10.465793 -15.172288 -9.017517 -2.139760 -0.105477 -0.950016 0.000000 0.000000 0.000000 16.471418 1.851849 0.110096 -76.844051 3.091916 8.342124 179.439125 -51.901305 179.863440 12.182152 -3.842421 -0.500319 -0.278475 0.771164 -0.000000 0.000000 0.000000 0.000000 0.000000 0.000000 0.000000 2.794616 -10.272970 1.241006 73.490409 -0.615111 20.813392 179.889583 69.014920 179.850551 -18.830059 5.509747 -1.037088 0.442068 -0.617282 -0.000000 0.000000 0.000000 0.000000 0.000000 0.000000 0.000000 
2.962896 15.853604 1.203373 177.480750 -79.274304 -132.134040 2.917519 -2.908125 5.100173 0.326264 -2.962334 -2.323098 -4.437765 -2.896965 -1.973908 10.412005 -14.946525 -8.958268 -2.181640 -0.109432 -0.936434 0.000000 0.000000 0.000000 16.354878 1.944317 0.108110 -77.055030 2.935635 8.551031 179.423142 -52.007258 179.862775 12.208738 -3.858116 -0.503272 -0.277640 0.772276 -0.000000 0.000000 0.000000 0.000000 0.000000 0.000000 0.000000 3.028973 -10.050706 1.256683 73.435552 -0.666145 20.507783 179.894342 69.840213 179.851394 -18.916510 5.462643 -1.032151 0.436539 -0.608745 0.000000 0.000000 0.000000 0.000000 0.000000 0.000000 0.000000 
2.968971 15.844001 1.204025 177.171802 -79.590493 -131.974164 2.881552 -2.829165 5.209915 0.320405 -2.877788 -2.310172 -4.379409 -2.813397 -2.019591 10.350267 -14.695385 -8.892282 -2.225724 -0.113641 -0.921041 0.000000 0.000000 0.000000 16.225351 2.044378 0.108894 -77.287757 2.779294 8.771791 179.406250 -52.122026 179.862075 12.238070 -3.871293 -0.506025 -0.276760 0.773303 -0.000000 0.000000 0.000000 0.000000 0.000000 0.000000 0.000000 3.260253 -9.800729 1.272102 73.382040 -0.710166 20.160640 179.901156 70.681611 179.852182 -19.008450 5.404072 -1.025320 0.430833 -0.599957 -0.000000 0.000000 0.000000 0.000000 0.000000 0.000000 0.000000 
2.975164 15.835181 1.204560 176.806428 -79.937367 -131.774384 2.849476 -2.745266 5.327447 0.315527 -2.788295 -2.296617 -4.318563 -2.724848 -2.069249 10.281927 -14.420076 -8.819354 -2.271431 -0.118057 -0.903752 0.000000 0.000000 0.000000 16.085976 2.148178 0.112308 -77.543300 2.626565 9.003523 179.387437 -52.244263 179.861340 12.269743 -3.882071 -0.508680 -0.275739 0.774230 -0.000000 0.000000 0.000000 0.000000 0.000000 0.000000 0.000000 3.486032 -9.523955 1.287408 73.331018 -0.742496 19.772360 179.910049 71.533070 179.852827 -19.115007 5.333552 -1.017093 0.425216 -0.591013 -0.000000 0.000000 0.000000 0.000000 0.000000 0.000000 0.000000 
2.981544 15.827440 1.204916 176.369008 -80.313890 -131.522229 2.820409 -2.656791 5.455091 0.311471 -2.694171 -2.281596 -4.255350 -2.631550 -2.122131 10.205903 -14.116406 -8.739342 -2.317933 -0.122603 -0.884636 0.000000 0.000000 0.000000 15.933063 2.265031 0.118976 -77.812758 2.468254 9.255000 179.367813 -52.377166 179.860496 12.312205 -3.886065 -0.510935 -0.275037 0.774940 -0.000000 0.000000 0.000000 0.000000 0.000000 0.000000 0.000000 3.699966 -9.216536 1.301211 73.288813 -0.758877 19.340831 179.921716 72.389306 179.853259 -19.242616 5.253835 -1.008269 0.419747 -0.582064 0.000000 0.000000 0.000000 0.000000 0.000000 0.000000 0.000000 
2.988053 15.820800 1.204964 175.824187 -80.721754 -131.179814 2.789664 -2.564145 5.588990 0.307389 -2.595742 -2.266211 -4.189175 -2.533889 -2.179285 10.125377 -13.791064 -8.652326 -2.364363 -0.127215 -0.863597 0.000000 0.000000 0.000000 15.774990 2.380407 0.128172 -78.105932 2.321065 9.516372 179.344289 -52.515754 179.859597 12.358599 -3.888189 -0.513192 -0.274100 0.775518 -0.000000 0.000000 0.000000 0.000000 0.000000 0.000000 0.000000 3.901662 -8.884363 1.314826 73.250978 -0.750021 18.874131 179.935309 73.245181 179.853363 -19.404810 5.162675 -0.999148 0.414888 -0.573170 0.000000 0.000000 0.000000 0.000000 0.000000 0.000000 0.000000 
2.994765 15.815558 1.204611 175.145333 -81.157997 -130.724101 2.755635 -2.467891 5.731045 0.303023 -2.493520 -2.249726 -4.119924 -2.432316 -2.239988 10.038590 -13.439657 -8.558068 -2.409744 -0.131805 -0.840657 0.000000 0.000000 0.000000 15.608114 2.503230 0.140519 -78.411307 2.176137 9.796948 179.318120 -52.663046 179.858579 12.416687 -3.884162 -0.515149 -0.273373 0.775848 -0.000000 0.000000 0.000000 0.000000 0.000000 0.000000 0.000000 4.084141 -8.523341 1.326945 73.224142 -0.709581 18.372881 179.951218 74.099964 179.853111 -19.604740 5.064325 -0.990427 0.410583 -0.564478 0.000000 0.000000 0.000000 0.000000 0.000000 0.000000 0.000000 
3.001688 15.811825 1.203712 174.288140 -81.620977 -130.110410 2.714451 -2.368566 5.879395 0.297631 -2.387982 -2.232536 -4.047358 -2.327312 -2.304432 9.946291 -13.065543 -8.456621 -2.453008 -0.136291 -0.815777 0.000000 0.000000 0.000000 15.436178 2.627829 0.155848 -78.728140 2.040476 10.094512 179.288213 -52.816951 179.857460 12.484441 -3.875759 -0.517007 -0.272683 0.775953 -0.000000 0.000000 0.000000 0.000000 0.000000 0.000000 0.000000 4.243186 -8.136257 1.337789 73.209045 -0.627298 17.844204 179.968839 74.948441 179.852460 -19.845868 4.959563 -0.982307 0.406969 -0.556116 0.000000 0.000000 0.000000 0.000000 0.000000 0.000000 0.000000 
3.008788 15.809762 1.202134 173.202029 -82.107265 -129.289017 2.663100 -2.266723 6.033339 0.290713 -2.279644 -2.214565 -3.971026 -2.219378 -2.372042 9.846826 -12.667246 -8.348035 -2.493111 -0.140587 -0.788970 0.000000 0.000000 0.000000 15.258648 2.757959 0.174507 -79.049073 1.911729 10.413798 179.255087 -52.978620 179.856221 12.564500 -3.861238 -0.518766 -0.272188 0.775778 -0.000000 0.000000 0.000000 0.000000 0.000000 0.000000 0.000000 4.372462 -7.721349 1.346591 73.209683 -0.494810 17.291674 179.987877 75.790754 179.851433 -20.123443 4.852940 -0.975189 0.403890 -0.548233 0.000000 0.000000 0.000000 0.000000 0.000000 0.000000 0.000000 
3.016136 15.809449 1.199746 171.812026 -82.614585 -128.185203 2.597535 -2.162763 6.189233 0.281415 -2.168920 -2.196686 -3.890844 -2.108944 -2.443035 9.741448 -12.254086 -8.233121 -2.529080 -0.144618 -0.760301 0.000000 0.000000 0.000000 15.082367 2.881250 0.195747 -79.375413 1.802304 10.748673 179.217081 -53.143842 179.854941 12.648733 -3.844914 -0.520327 -0.271422 0.775401 -0.000000 0.000000 0.000000 0.000000 0.000000 0.000000 0.000000 4.469700 -7.287073 1.354421 73.223327 -0.296454 16.727571 -179.992911 76.622908 179.850046 -20.432893 4.742481 -0.968568 0.401426 -0.540901 0.000000 0.000000 0.000000 0.000000 0.000000 0.000000 0.000000 
3.023588 15.810911 1.196439 170.029547 -83.138675 -126.708066 2.514766 -2.057077 6.344308 0.269228 -2.056235 -2.179255 -3.806114 -1.996448 -2.516538 9.629295 -11.831010 -8.113046 -2.560041 -0.148309 -0.730033 0.000000 0.000000 0.000000 14.910422 2.995711 0.219439 -79.705210 1.716246 11.097731 179.173906 -53.309860 179.853662 12.733017 -3.828346 -0.521791 -0.270206 0.774865 -0.000000 0.000000 0.000000 0.000000 0.000000 0.000000 0.000000 4.531303 -6.837842 1.361234 73.247405 -0.018624 16.160533 -179.974373 77.444512 179.848368 -20.762557 4.628211 -0.961547 0.399439 -0.534186 0.000000 0.000000 0.000000 0.000000 0.000000 0.000000 0.000000 
3.031126 15.814282 1.192114 167.741720 -83.672940 -124.746218 2.414112 -1.950539 6.498224 0.253934 -1.942611 -2.162068 -3.717233 -1.882875 -2.591680 9.507050 -11.395035 -7.987604 -2.585267 -0.151609 -0.698089 0.000000 0.000000 0.000000 14.740082 3.108794 0.246294 -80.024581 1.644997 11.469315 179.127895 -53.480366 179.852374 12.819943 -3.808109 -0.522955 -0.268852 0.774095 -0.000000 0.000000 0.000000 0.000000 0.000000 0.000000 0.000000 4.550132 -6.370376 1.365462 73.287740 0.345819 15.588180 -179.956665 78.253856 179.846517 -21.090429 4.517607 -0.954729 0.397435 -0.528306 0.000000 0.000000 0.000000 0.000000 0.000000 0.000000 0.000000 
